%TF.GenerationSoftware,KiCad,Pcbnew,8.0.1*%
%TF.CreationDate,2024-12-18T11:05:08+01:00*%
%TF.ProjectId,pcb,7063622e-6b69-4636-9164-5f7063625858,rev?*%
%TF.SameCoordinates,Original*%
%TF.FileFunction,Copper,L1,Top*%
%TF.FilePolarity,Positive*%
%FSLAX46Y46*%
G04 Gerber Fmt 4.6, Leading zero omitted, Abs format (unit mm)*
G04 Created by KiCad (PCBNEW 8.0.1) date 2024-12-18 11:05:08*
%MOMM*%
%LPD*%
G01*
G04 APERTURE LIST*
G04 Aperture macros list*
%AMRoundRect*
0 Rectangle with rounded corners*
0 $1 Rounding radius*
0 $2 $3 $4 $5 $6 $7 $8 $9 X,Y pos of 4 corners*
0 Add a 4 corners polygon primitive as box body*
4,1,4,$2,$3,$4,$5,$6,$7,$8,$9,$2,$3,0*
0 Add four circle primitives for the rounded corners*
1,1,$1+$1,$2,$3*
1,1,$1+$1,$4,$5*
1,1,$1+$1,$6,$7*
1,1,$1+$1,$8,$9*
0 Add four rect primitives between the rounded corners*
20,1,$1+$1,$2,$3,$4,$5,0*
20,1,$1+$1,$4,$5,$6,$7,0*
20,1,$1+$1,$6,$7,$8,$9,0*
20,1,$1+$1,$8,$9,$2,$3,0*%
G04 Aperture macros list end*
%TA.AperFunction,SMDPad,CuDef*%
%ADD10R,1.600000X1.600000*%
%TD*%
%TA.AperFunction,SMDPad,CuDef*%
%ADD11R,0.500000X0.800000*%
%TD*%
%TA.AperFunction,SMDPad,CuDef*%
%ADD12R,0.800000X0.500000*%
%TD*%
%TA.AperFunction,SMDPad,CuDef*%
%ADD13RoundRect,0.225000X-0.225000X-0.250000X0.225000X-0.250000X0.225000X0.250000X-0.225000X0.250000X0*%
%TD*%
%TA.AperFunction,SMDPad,CuDef*%
%ADD14RoundRect,0.225000X0.225000X0.250000X-0.225000X0.250000X-0.225000X-0.250000X0.225000X-0.250000X0*%
%TD*%
%TA.AperFunction,SMDPad,CuDef*%
%ADD15RoundRect,0.225000X-0.250000X0.225000X-0.250000X-0.225000X0.250000X-0.225000X0.250000X0.225000X0*%
%TD*%
%TA.AperFunction,SMDPad,CuDef*%
%ADD16RoundRect,0.200000X-0.200000X-0.275000X0.200000X-0.275000X0.200000X0.275000X-0.200000X0.275000X0*%
%TD*%
%TA.AperFunction,SMDPad,CuDef*%
%ADD17RoundRect,0.200000X0.275000X-0.200000X0.275000X0.200000X-0.275000X0.200000X-0.275000X-0.200000X0*%
%TD*%
%TA.AperFunction,ComponentPad*%
%ADD18R,1.350000X1.350000*%
%TD*%
%TA.AperFunction,ComponentPad*%
%ADD19O,1.350000X1.350000*%
%TD*%
%TA.AperFunction,SMDPad,CuDef*%
%ADD20RoundRect,0.250000X-0.275000X-0.250000X0.275000X-0.250000X0.275000X0.250000X-0.275000X0.250000X0*%
%TD*%
%TA.AperFunction,SMDPad,CuDef*%
%ADD21RoundRect,0.250000X-0.850000X-0.275000X0.850000X-0.275000X0.850000X0.275000X-0.850000X0.275000X0*%
%TD*%
%TA.AperFunction,SMDPad,CuDef*%
%ADD22RoundRect,0.200000X-0.275000X0.200000X-0.275000X-0.200000X0.275000X-0.200000X0.275000X0.200000X0*%
%TD*%
%TA.AperFunction,ViaPad*%
%ADD23C,0.800000*%
%TD*%
%TA.AperFunction,Conductor*%
%ADD24C,0.500000*%
%TD*%
%TA.AperFunction,Conductor*%
%ADD25C,0.250000*%
%TD*%
%TA.AperFunction,Conductor*%
%ADD26C,0.300000*%
%TD*%
G04 APERTURE END LIST*
D10*
%TO.P,IC1,57,GND_14*%
%TO.N,Earth*%
X96500000Y-70500000D03*
%TO.P,IC1,56,GND_13*%
X94000000Y-70500000D03*
%TO.P,IC1,55,GND_12*%
X91500000Y-70500000D03*
%TO.P,IC1,54,GND_11*%
X96500000Y-68000000D03*
%TO.P,IC1,53,GND_10*%
X94000000Y-68000000D03*
%TO.P,IC1,52,GND_9*%
X91500000Y-68000000D03*
%TO.P,IC1,51,GND_8*%
X96500000Y-65500000D03*
%TO.P,IC1,50,GND_7*%
X94000000Y-65500000D03*
%TO.P,IC1,49,GND_6*%
X91500000Y-65500000D03*
D11*
%TO.P,IC1,44,GND_5*%
X92800000Y-62800000D03*
%TO.P,IC1,43,BOOT0*%
%TO.N,Net-(IC1-BOOT0)*%
X93600000Y-62800000D03*
%TO.P,IC1,42,PA14/SWCLK*%
%TO.N,/swclk*%
X94400000Y-62800000D03*
%TO.P,IC1,41,PA13/SWDIO*%
%TO.N,/swdio*%
X95200000Y-62800000D03*
D12*
%TO.P,IC1,34,MCU_NRST*%
%TO.N,/rst*%
X99650000Y-65200000D03*
%TO.P,IC1,32,VREF+*%
%TO.N,/vdd*%
X99650000Y-66800000D03*
%TO.P,IC1,31,STSAFE_NRST*%
%TO.N,Earth*%
X99650000Y-67600000D03*
%TO.P,IC1,30,DBG_CRF2*%
X99650000Y-68400000D03*
%TO.P,IC1,27,GND_4*%
X99650000Y-70800000D03*
%TO.P,IC1,26,ANT*%
%TO.N,Net-(IC1-ANT)*%
X99650000Y-71600000D03*
%TO.P,IC1,25,GND_3*%
%TO.N,Earth*%
X99650000Y-72400000D03*
D11*
%TO.P,IC1,24,PA2/ADC2*%
%TO.N,unconnected-(IC1-PA2{slash}ADC2-Pad24)*%
X98400000Y-73200000D03*
%TO.P,IC1,13,DBG_SX1276_DIO0*%
%TO.N,unconnected-(IC1-DBG_SX1276_DIO0-Pad13)*%
X89600000Y-73200000D03*
D12*
%TO.P,IC1,12,DBG_SX1276_DIO1*%
%TO.N,unconnected-(IC1-DBG_SX1276_DIO1-Pad12)*%
X88350000Y-72400000D03*
%TO.P,IC1,6,VDD_RF*%
%TO.N,/vdd*%
X88350000Y-67600000D03*
%TO.P,IC1,5,VDD_MCU*%
X88350000Y-66800000D03*
%TO.P,IC1,4,VDD_USB*%
%TO.N,/vdd_usb*%
X88350000Y-66000000D03*
%TO.P,IC1,3,GND_1*%
%TO.N,Earth*%
X88350000Y-65200000D03*
%TO.P,IC1,1,PA12/USB_DP_*%
%TO.N,/debimetre*%
X88350000Y-63600000D03*
%TD*%
D13*
%TO.P,C13,1*%
%TO.N,/rst*%
X103225000Y-61000000D03*
%TO.P,C13,2*%
%TO.N,Earth*%
X104775000Y-61000000D03*
%TD*%
D14*
%TO.P,C10,1*%
%TO.N,/vdd_usb*%
X83525000Y-66000000D03*
%TO.P,C10,2*%
%TO.N,Earth*%
X81975000Y-66000000D03*
%TD*%
%TO.P,C9,1*%
%TO.N,/vdd_usb*%
X83525000Y-67500000D03*
%TO.P,C9,2*%
%TO.N,Earth*%
X81975000Y-67500000D03*
%TD*%
D13*
%TO.P,C8,1*%
%TO.N,Earth*%
X81975000Y-64500000D03*
%TO.P,C8,2*%
%TO.N,/debimetre*%
X83525000Y-64500000D03*
%TD*%
%TO.P,C7,1*%
%TO.N,/vdd*%
X103225000Y-64250000D03*
%TO.P,C7,2*%
%TO.N,Earth*%
X104775000Y-64250000D03*
%TD*%
D15*
%TO.P,C3,1*%
%TO.N,/vdd*%
X85500000Y-69425000D03*
%TO.P,C3,2*%
%TO.N,Earth*%
X85500000Y-70975000D03*
%TD*%
D13*
%TO.P,C2,1*%
%TO.N,/vdd*%
X103225000Y-65750000D03*
%TO.P,C2,2*%
%TO.N,Earth*%
X104775000Y-65750000D03*
%TD*%
%TO.P,C1,1*%
%TO.N,/vdd*%
X103225000Y-62750000D03*
%TO.P,C1,2*%
%TO.N,Earth*%
X104775000Y-62750000D03*
%TD*%
D16*
%TO.P,R5,1*%
%TO.N,Net-(IC1-ANT)*%
X105180000Y-71750000D03*
%TO.P,R5,2*%
%TO.N,Net-(J1-GND-Pad1)*%
X106830000Y-71750000D03*
%TD*%
D17*
%TO.P,R4,1*%
%TO.N,Earth*%
X106780000Y-75000000D03*
%TO.P,R4,2*%
%TO.N,Net-(J1-GND-Pad1)*%
X106780000Y-73350000D03*
%TD*%
%TO.P,R3,1*%
%TO.N,Earth*%
X105280000Y-75000000D03*
%TO.P,R3,2*%
%TO.N,Net-(IC1-ANT)*%
X105280000Y-73350000D03*
%TD*%
D18*
%TO.P,J3,1,Pin_1*%
%TO.N,/debimetre*%
X79000000Y-61250000D03*
D19*
%TO.P,J3,2,Pin_2*%
%TO.N,/vdd*%
X79000000Y-59250000D03*
%TO.P,J3,3,Pin_3*%
%TO.N,Earth*%
X79000000Y-57250000D03*
%TD*%
D18*
%TO.P,J4,1,Pin_1*%
%TO.N,/vdd*%
X104250000Y-57250000D03*
D19*
%TO.P,J4,2,Pin_2*%
%TO.N,Earth*%
X102250000Y-57250000D03*
%TD*%
D20*
%TO.P,J1,1,GND*%
%TO.N,Net-(J1-GND-Pad1)*%
X109750000Y-71750000D03*
D21*
%TO.P,J1,2,GND*%
%TO.N,Earth*%
X111275000Y-70275000D03*
X111275000Y-73225000D03*
%TD*%
D22*
%TO.P,R1,1*%
%TO.N,Net-(J2-Pin_1)*%
X85400000Y-62751649D03*
%TO.P,R1,2*%
%TO.N,/vdd_usb*%
X85400000Y-64401649D03*
%TD*%
D18*
%TO.P,J2,1,Pin_1*%
%TO.N,Net-(J2-Pin_1)*%
X89000000Y-57250000D03*
D19*
%TO.P,J2,2,Pin_2*%
%TO.N,/swclk*%
X91000000Y-57250000D03*
%TO.P,J2,3,Pin_3*%
%TO.N,Earth*%
X93000000Y-57250000D03*
%TO.P,J2,4,Pin_4*%
%TO.N,/swdio*%
X95000000Y-57250000D03*
%TO.P,J2,5,Pin_5*%
%TO.N,/rst*%
X97000000Y-57250000D03*
%TO.P,J2,6,Pin_6*%
%TO.N,unconnected-(J2-Pin_6-Pad6)*%
X99000000Y-57250000D03*
%TD*%
D16*
%TO.P,R2,1*%
%TO.N,Earth*%
X91175000Y-60500000D03*
%TO.P,R2,2*%
%TO.N,Net-(IC1-BOOT0)*%
X92825000Y-60500000D03*
%TD*%
D23*
%TO.N,Earth*%
X82000000Y-71500000D03*
X86250000Y-58250000D03*
X86250000Y-56000000D03*
X81975000Y-69000000D03*
%TD*%
D24*
%TO.N,/vdd*%
X85800000Y-66800000D02*
X85000000Y-67600000D01*
X88350000Y-66800000D02*
X85800000Y-66800000D01*
%TO.N,Earth*%
X101100000Y-68100000D02*
X101100000Y-67600000D01*
X99650000Y-68400000D02*
X100800000Y-68400000D01*
X100800000Y-68400000D02*
X101100000Y-68100000D01*
X99650000Y-67600000D02*
X101100000Y-67600000D01*
X101100000Y-67600000D02*
X104775000Y-67600000D01*
%TO.N,Net-(J2-Pin_1)*%
X85950000Y-57250000D02*
X85400000Y-57800000D01*
X85400000Y-57800000D02*
X85400000Y-62751649D01*
X89000000Y-57250000D02*
X85950000Y-57250000D01*
%TO.N,/vdd_usb*%
X85400000Y-66000000D02*
X85750000Y-66000000D01*
X85400000Y-64401649D02*
X85400000Y-66000000D01*
X83525000Y-66000000D02*
X85400000Y-66000000D01*
%TO.N,Earth*%
X104775000Y-67600000D02*
X104775000Y-70175000D01*
X104775000Y-65750000D02*
X104775000Y-67600000D01*
X85500000Y-70975000D02*
X85500000Y-73500000D01*
X87000000Y-75000000D02*
X105280000Y-75000000D01*
X85400000Y-73400000D02*
X87000000Y-75000000D01*
X83500000Y-71500000D02*
X85500000Y-73500000D01*
X82000000Y-71500000D02*
X83500000Y-71500000D01*
%TO.N,/vdd*%
X85500000Y-69425000D02*
X85500000Y-67600000D01*
X85500000Y-67600000D02*
X85700000Y-67600000D01*
X85000000Y-67600000D02*
X85500000Y-67600000D01*
X79000000Y-70250000D02*
X82350000Y-70250000D01*
X82350000Y-70250000D02*
X85000000Y-67600000D01*
X77250000Y-68500000D02*
X79000000Y-70250000D01*
X77250000Y-58750000D02*
X77250000Y-68500000D01*
X85700000Y-67600000D02*
X88350000Y-67600000D01*
%TO.N,/rst*%
X97750000Y-61000000D02*
X100500000Y-61000000D01*
X97000000Y-60250000D02*
X97750000Y-61000000D01*
X97000000Y-57250000D02*
X97000000Y-60250000D01*
%TO.N,Earth*%
X111275000Y-74500000D02*
X111275000Y-73225000D01*
X110775000Y-75000000D02*
X111275000Y-74500000D01*
X106780000Y-75000000D02*
X110775000Y-75000000D01*
X104775000Y-70175000D02*
X104800000Y-70200000D01*
X110200000Y-70200000D02*
X104800000Y-70200000D01*
X104800000Y-70200000D02*
X104400000Y-70200000D01*
X104400000Y-70200000D02*
X103800000Y-70800000D01*
X103800000Y-70800000D02*
X99650000Y-70800000D01*
X104800000Y-75000000D02*
X106780000Y-75000000D01*
X103900000Y-74100000D02*
X104800000Y-75000000D01*
X103900000Y-72800000D02*
X103900000Y-74100000D01*
X103500000Y-72400000D02*
X103900000Y-72800000D01*
X99650000Y-72400000D02*
X103500000Y-72400000D01*
%TO.N,Net-(J1-GND-Pad1)*%
X109750000Y-71750000D02*
X106830000Y-71750000D01*
%TO.N,Net-(IC1-ANT)*%
X105030000Y-71600000D02*
X105180000Y-71750000D01*
X99650000Y-71600000D02*
X105030000Y-71600000D01*
X105130000Y-73200000D02*
X105280000Y-73350000D01*
X105130000Y-71675000D02*
X105130000Y-73200000D01*
%TO.N,Net-(J1-GND-Pad1)*%
X106780000Y-71675000D02*
X106780000Y-73350000D01*
D25*
%TO.N,/vdd*%
X104000000Y-57500000D02*
X104000000Y-61975000D01*
X104000000Y-61975000D02*
X103225000Y-62750000D01*
D24*
X104250000Y-57250000D02*
X104000000Y-57500000D01*
%TO.N,/rst*%
X103225000Y-61000000D02*
X100500000Y-61000000D01*
X100500000Y-61000000D02*
X101250000Y-61750000D01*
%TO.N,/vdd*%
X102500000Y-66500000D02*
X102200000Y-66800000D01*
X102500000Y-66475000D02*
X102500000Y-66500000D01*
X102200000Y-66800000D02*
X99650000Y-66800000D01*
X103225000Y-65750000D02*
X102500000Y-66475000D01*
X77750000Y-59250000D02*
X77250000Y-58750000D01*
X78000000Y-55000000D02*
X102000000Y-55000000D01*
X103225000Y-63750000D02*
X103225000Y-62750000D01*
X77250000Y-58750000D02*
X77250000Y-55750000D01*
X103225000Y-64250000D02*
X103225000Y-63750000D01*
X103175000Y-63800000D02*
X103225000Y-63750000D01*
X103225000Y-65750000D02*
X103225000Y-64250000D01*
X104250000Y-57250000D02*
X104500000Y-57250000D01*
X103025000Y-62550000D02*
X103225000Y-62750000D01*
X77250000Y-55750000D02*
X78000000Y-55000000D01*
X102000000Y-55000000D02*
X104250000Y-57250000D01*
X104500000Y-57250000D02*
X104750000Y-57500000D01*
X79000000Y-59250000D02*
X77750000Y-59250000D01*
%TO.N,Earth*%
X89500000Y-60500000D02*
X91175000Y-60500000D01*
X98500000Y-70800000D02*
X99650000Y-70800000D01*
X92800000Y-63800000D02*
X92800000Y-62800000D01*
X91500000Y-65500000D02*
X96500000Y-65500000D01*
X91500000Y-68000000D02*
X96500000Y-68000000D01*
X81975000Y-69000000D02*
X81975000Y-67500000D01*
X91500000Y-65500000D02*
X91200000Y-65200000D01*
X91200000Y-65200000D02*
X88350000Y-65200000D01*
X104775000Y-64250000D02*
X104775000Y-62750000D01*
X92250000Y-56000000D02*
X92500000Y-56000000D01*
X81975000Y-64500000D02*
X81975000Y-66000000D01*
X91175000Y-60500000D02*
X92800000Y-62125000D01*
X99650000Y-68400000D02*
X96900000Y-68400000D01*
X94000000Y-65500000D02*
X94000000Y-70500000D01*
X104775000Y-65750000D02*
X104775000Y-64250000D01*
X87250000Y-58250000D02*
X89500000Y-60500000D01*
X91500000Y-70500000D02*
X96500000Y-70500000D01*
X80250000Y-56000000D02*
X79000000Y-57250000D01*
X99150000Y-72400000D02*
X98500000Y-71750000D01*
X86250000Y-56000000D02*
X82000000Y-56000000D01*
X82000000Y-56000000D02*
X80250000Y-56000000D01*
X91500000Y-65500000D02*
X91500000Y-70500000D01*
X98500000Y-71750000D02*
X98500000Y-70800000D01*
X94000000Y-65000000D02*
X92800000Y-63800000D01*
X92250000Y-56000000D02*
X86250000Y-56000000D01*
X102250000Y-57250000D02*
X101000000Y-56000000D01*
X96500000Y-70500000D02*
X96800000Y-70800000D01*
X104775000Y-61000000D02*
X104775000Y-62750000D01*
X96900000Y-68400000D02*
X96500000Y-68000000D01*
X93000000Y-56500000D02*
X93000000Y-57250000D01*
X96500000Y-70500000D02*
X96500000Y-65500000D01*
X101000000Y-56000000D02*
X92250000Y-56000000D01*
X94000000Y-65500000D02*
X94000000Y-65000000D01*
X92800000Y-62125000D02*
X92800000Y-62800000D01*
X86250000Y-58250000D02*
X87250000Y-58250000D01*
X81975000Y-67500000D02*
X81975000Y-66000000D01*
X96800000Y-70800000D02*
X98500000Y-70800000D01*
X92500000Y-56000000D02*
X93000000Y-56500000D01*
X99650000Y-72400000D02*
X99150000Y-72400000D01*
%TO.N,/debimetre*%
X79000000Y-61250000D02*
X82000000Y-61250000D01*
X82000000Y-61250000D02*
X84350000Y-63600000D01*
X83525000Y-64500000D02*
X83525000Y-62775000D01*
D26*
X84350000Y-63600000D02*
X88350000Y-63600000D01*
D24*
X83525000Y-62775000D02*
X83375000Y-62625000D01*
%TO.N,/vdd_usb*%
X86750000Y-66000000D02*
X88350000Y-66000000D01*
X83525000Y-67500000D02*
X83525000Y-66000000D01*
X86250000Y-66000000D02*
X86750000Y-66000000D01*
X85750000Y-66000000D02*
X86250000Y-66000000D01*
%TO.N,/rst*%
X101250000Y-65200000D02*
X99650000Y-65200000D01*
X101250000Y-61750000D02*
X101250000Y-65200000D01*
%TO.N,/swdio*%
X95200000Y-57700000D02*
X95200000Y-62800000D01*
X95000000Y-57500000D02*
X95200000Y-57700000D01*
X95000000Y-57250000D02*
X95000000Y-57750000D01*
X95000000Y-57250000D02*
X95000000Y-57500000D01*
X95000000Y-57750000D02*
X95200000Y-57950000D01*
%TO.N,/swclk*%
X94400000Y-62800000D02*
X94400000Y-60650000D01*
X94400000Y-60650000D02*
X91000000Y-57250000D01*
%TO.N,Net-(IC1-BOOT0)*%
X92825000Y-60500000D02*
X93600000Y-61275000D01*
X93600000Y-61275000D02*
X93600000Y-62800000D01*
%TD*%
%TA.AperFunction,Conductor*%
%TO.N,Earth*%
G36*
X114242539Y-68219685D02*
G01*
X114288294Y-68272489D01*
X114299500Y-68324000D01*
X114299500Y-76375500D01*
X114279815Y-76442539D01*
X114227011Y-76488294D01*
X114175500Y-76499500D01*
X102424000Y-76499500D01*
X102356961Y-76479815D01*
X102311206Y-76427011D01*
X102300000Y-76375500D01*
X102300000Y-75250000D01*
X104305001Y-75250000D01*
X104305001Y-75256582D01*
X104311408Y-75327102D01*
X104311409Y-75327107D01*
X104361981Y-75489396D01*
X104449927Y-75634877D01*
X104570122Y-75755072D01*
X104715604Y-75843019D01*
X104715603Y-75843019D01*
X104877894Y-75893590D01*
X104877892Y-75893590D01*
X104948418Y-75899999D01*
X105029999Y-75899998D01*
X105030000Y-75899998D01*
X105030000Y-75250000D01*
X105530000Y-75250000D01*
X105530000Y-75899999D01*
X105611581Y-75899999D01*
X105682102Y-75893591D01*
X105682107Y-75893590D01*
X105844396Y-75843018D01*
X105965850Y-75769597D01*
X106033404Y-75751761D01*
X106094150Y-75769597D01*
X106215604Y-75843019D01*
X106215603Y-75843019D01*
X106377894Y-75893590D01*
X106377892Y-75893590D01*
X106448418Y-75899999D01*
X106529999Y-75899998D01*
X106530000Y-75899998D01*
X106530000Y-75250000D01*
X107030000Y-75250000D01*
X107030000Y-75899999D01*
X107111581Y-75899999D01*
X107182102Y-75893591D01*
X107182107Y-75893590D01*
X107344396Y-75843018D01*
X107489877Y-75755072D01*
X107610072Y-75634877D01*
X107698019Y-75489395D01*
X107748590Y-75327106D01*
X107755000Y-75256572D01*
X107755000Y-75250000D01*
X107030000Y-75250000D01*
X106530000Y-75250000D01*
X105530000Y-75250000D01*
X105030000Y-75250000D01*
X104305001Y-75250000D01*
X102300000Y-75250000D01*
X102300000Y-72474500D01*
X102319685Y-72407461D01*
X102372489Y-72361706D01*
X102424000Y-72350500D01*
X104255500Y-72350500D01*
X104322539Y-72370185D01*
X104368294Y-72422989D01*
X104379500Y-72474500D01*
X104379500Y-72796086D01*
X104363607Y-72853104D01*
X104364601Y-72853552D01*
X104361662Y-72860082D01*
X104361621Y-72860230D01*
X104361523Y-72860391D01*
X104361522Y-72860393D01*
X104361522Y-72860394D01*
X104349181Y-72899998D01*
X104310913Y-73022807D01*
X104304500Y-73093386D01*
X104304500Y-73606613D01*
X104310913Y-73677192D01*
X104361522Y-73839606D01*
X104449530Y-73985188D01*
X104552015Y-74087673D01*
X104585500Y-74148996D01*
X104580516Y-74218688D01*
X104552015Y-74263035D01*
X104449928Y-74365121D01*
X104449927Y-74365122D01*
X104361980Y-74510604D01*
X104311409Y-74672893D01*
X104305000Y-74743427D01*
X104305000Y-74750000D01*
X107754999Y-74750000D01*
X107754999Y-74743417D01*
X107748591Y-74672897D01*
X107748590Y-74672892D01*
X107698018Y-74510603D01*
X107610072Y-74365122D01*
X107507984Y-74263034D01*
X107474499Y-74201711D01*
X107479483Y-74132019D01*
X107507983Y-74087673D01*
X107610472Y-73985185D01*
X107698478Y-73839606D01*
X107749086Y-73677196D01*
X107755500Y-73606616D01*
X107755500Y-73475000D01*
X109675001Y-73475000D01*
X109675001Y-73549986D01*
X109685494Y-73652697D01*
X109740641Y-73819119D01*
X109740643Y-73819124D01*
X109832684Y-73968345D01*
X109956654Y-74092315D01*
X110105875Y-74184356D01*
X110105880Y-74184358D01*
X110272302Y-74239505D01*
X110272309Y-74239506D01*
X110375019Y-74249999D01*
X111024999Y-74249999D01*
X111025000Y-74249998D01*
X111025000Y-73475000D01*
X111525000Y-73475000D01*
X111525000Y-74249999D01*
X112174972Y-74249999D01*
X112174986Y-74249998D01*
X112277697Y-74239505D01*
X112444119Y-74184358D01*
X112444124Y-74184356D01*
X112593345Y-74092315D01*
X112717315Y-73968345D01*
X112809356Y-73819124D01*
X112809358Y-73819119D01*
X112864505Y-73652697D01*
X112864506Y-73652690D01*
X112874999Y-73549986D01*
X112875000Y-73549973D01*
X112875000Y-73475000D01*
X111525000Y-73475000D01*
X111025000Y-73475000D01*
X109675001Y-73475000D01*
X107755500Y-73475000D01*
X107755500Y-73093384D01*
X107749086Y-73022804D01*
X107698478Y-72860394D01*
X107610472Y-72714815D01*
X107610470Y-72714813D01*
X107610469Y-72714811D01*
X107607839Y-72712181D01*
X107606528Y-72709781D01*
X107605843Y-72708906D01*
X107605988Y-72708792D01*
X107574354Y-72650858D01*
X107579338Y-72581166D01*
X107621210Y-72525233D01*
X107686674Y-72500816D01*
X107695520Y-72500500D01*
X108862770Y-72500500D01*
X108929809Y-72520185D01*
X108950451Y-72536819D01*
X109006344Y-72592712D01*
X109155666Y-72684814D01*
X109322203Y-72739999D01*
X109424991Y-72750500D01*
X109552962Y-72750499D01*
X109620000Y-72770183D01*
X109665755Y-72822987D01*
X109676319Y-72887096D01*
X109675001Y-72899998D01*
X109675000Y-72900026D01*
X109675000Y-72975000D01*
X112874999Y-72975000D01*
X112874999Y-72900028D01*
X112874998Y-72900013D01*
X112864505Y-72797302D01*
X112809358Y-72630880D01*
X112809356Y-72630875D01*
X112717315Y-72481654D01*
X112593345Y-72357684D01*
X112437975Y-72261851D01*
X112439032Y-72260137D01*
X112394153Y-72220619D01*
X112375000Y-72154413D01*
X112375000Y-71345586D01*
X112394685Y-71278547D01*
X112439013Y-71239832D01*
X112437975Y-71238149D01*
X112593345Y-71142315D01*
X112717315Y-71018345D01*
X112809356Y-70869124D01*
X112809358Y-70869119D01*
X112864505Y-70702697D01*
X112864506Y-70702690D01*
X112874999Y-70599986D01*
X112875000Y-70599973D01*
X112875000Y-70525000D01*
X109675001Y-70525000D01*
X109675001Y-70599981D01*
X109676321Y-70612904D01*
X109663548Y-70681596D01*
X109615665Y-70732478D01*
X109552963Y-70749500D01*
X109424999Y-70749500D01*
X109424980Y-70749501D01*
X109322203Y-70760000D01*
X109322200Y-70760001D01*
X109155668Y-70815185D01*
X109155663Y-70815187D01*
X109006342Y-70907289D01*
X108950451Y-70963181D01*
X108889128Y-70996666D01*
X108862770Y-70999500D01*
X107596519Y-70999500D01*
X107529480Y-70979815D01*
X107508837Y-70963180D01*
X107465188Y-70919531D01*
X107465188Y-70919530D01*
X107444937Y-70907288D01*
X107319606Y-70831522D01*
X107157196Y-70780914D01*
X107157194Y-70780913D01*
X107157192Y-70780913D01*
X107107778Y-70776423D01*
X107086616Y-70774500D01*
X106573384Y-70774500D01*
X106554145Y-70776248D01*
X106502807Y-70780913D01*
X106340393Y-70831522D01*
X106194811Y-70919530D01*
X106194810Y-70919531D01*
X106092681Y-71021661D01*
X106031358Y-71055146D01*
X105961666Y-71050162D01*
X105917319Y-71021661D01*
X105815188Y-70919530D01*
X105794937Y-70907288D01*
X105669606Y-70831522D01*
X105507196Y-70780914D01*
X105507194Y-70780913D01*
X105507192Y-70780913D01*
X105457778Y-70776423D01*
X105436616Y-70774500D01*
X104923384Y-70774500D01*
X104904145Y-70776248D01*
X104852807Y-70780913D01*
X104690390Y-70831523D01*
X104690233Y-70831619D01*
X104690089Y-70831659D01*
X104683555Y-70834600D01*
X104683107Y-70833605D01*
X104626087Y-70849500D01*
X102424000Y-70849500D01*
X102356961Y-70829815D01*
X102311206Y-70777011D01*
X102300000Y-70725500D01*
X102300000Y-70025000D01*
X109675000Y-70025000D01*
X111025000Y-70025000D01*
X111025000Y-69250000D01*
X111525000Y-69250000D01*
X111525000Y-70025000D01*
X112874999Y-70025000D01*
X112874999Y-69950028D01*
X112874998Y-69950013D01*
X112864505Y-69847302D01*
X112809358Y-69680880D01*
X112809356Y-69680875D01*
X112717315Y-69531654D01*
X112593345Y-69407684D01*
X112444124Y-69315643D01*
X112444119Y-69315641D01*
X112277697Y-69260494D01*
X112277690Y-69260493D01*
X112174986Y-69250000D01*
X111525000Y-69250000D01*
X111025000Y-69250000D01*
X110375028Y-69250000D01*
X110375012Y-69250001D01*
X110272302Y-69260494D01*
X110105880Y-69315641D01*
X110105875Y-69315643D01*
X109956654Y-69407684D01*
X109832684Y-69531654D01*
X109740643Y-69680875D01*
X109740641Y-69680880D01*
X109685494Y-69847302D01*
X109685493Y-69847309D01*
X109675000Y-69950013D01*
X109675000Y-70025000D01*
X102300000Y-70025000D01*
X102300000Y-68324000D01*
X102319685Y-68256961D01*
X102372489Y-68211206D01*
X102424000Y-68200000D01*
X114175500Y-68200000D01*
X114242539Y-68219685D01*
G37*
%TD.AperFunction*%
%TD*%
M02*
