%TF.GenerationSoftware,KiCad,Pcbnew,8.0.1*%
%TF.CreationDate,2024-12-18T11:05:01+01:00*%
%TF.ProjectId,pcb,7063622e-6b69-4636-9164-5f7063625858,rev?*%
%TF.SameCoordinates,Original*%
%TF.FileFunction,Drillmap*%
%TF.FilePolarity,Positive*%
%FSLAX45Y45*%
G04 Gerber Fmt 4.5, Leading zero omitted, Abs format (unit mm)*
G04 Created by KiCad (PCBNEW 8.0.1) date 2024-12-18 11:05:01*
%MOMM*%
%LPD*%
G01*
G04 APERTURE LIST*
%ADD10C,0.050000*%
%ADD11C,0.200000*%
%ADD12C,0.100000*%
G04 APERTURE END LIST*
D10*
X7550000Y-5275000D02*
X11480000Y-5275000D01*
X11480000Y-7700000D01*
X7550000Y-7700000D01*
X7550000Y-5275000D01*
D11*
D12*
X8177500Y-6880000D02*
X8217500Y-6920000D01*
X8217500Y-6880000D02*
X8177500Y-6920000D01*
X8180000Y-7130000D02*
X8220000Y-7170000D01*
X8220000Y-7130000D02*
X8180000Y-7170000D01*
X8605000Y-5580000D02*
X8645000Y-5620000D01*
X8645000Y-5580000D02*
X8605000Y-5620000D01*
X8605000Y-5805000D02*
X8645000Y-5845000D01*
X8645000Y-5805000D02*
X8605000Y-5845000D01*
X7940000Y-5725000D02*
G75*
G02*
X7860000Y-5725000I-40000J0D01*
G01*
X7860000Y-5725000D02*
G75*
G02*
X7940000Y-5725000I40000J0D01*
G01*
X7940000Y-5925000D02*
G75*
G02*
X7860000Y-5925000I-40000J0D01*
G01*
X7860000Y-5925000D02*
G75*
G02*
X7940000Y-5925000I40000J0D01*
G01*
X7940000Y-6125000D02*
G75*
G02*
X7860000Y-6125000I-40000J0D01*
G01*
X7860000Y-6125000D02*
G75*
G02*
X7940000Y-6125000I40000J0D01*
G01*
X8940000Y-5725000D02*
G75*
G02*
X8860000Y-5725000I-40000J0D01*
G01*
X8860000Y-5725000D02*
G75*
G02*
X8940000Y-5725000I40000J0D01*
G01*
X9140000Y-5725000D02*
G75*
G02*
X9060000Y-5725000I-40000J0D01*
G01*
X9060000Y-5725000D02*
G75*
G02*
X9140000Y-5725000I40000J0D01*
G01*
X9340000Y-5725000D02*
G75*
G02*
X9260000Y-5725000I-40000J0D01*
G01*
X9260000Y-5725000D02*
G75*
G02*
X9340000Y-5725000I40000J0D01*
G01*
X9540000Y-5725000D02*
G75*
G02*
X9460000Y-5725000I-40000J0D01*
G01*
X9460000Y-5725000D02*
G75*
G02*
X9540000Y-5725000I40000J0D01*
G01*
X9740000Y-5725000D02*
G75*
G02*
X9660000Y-5725000I-40000J0D01*
G01*
X9660000Y-5725000D02*
G75*
G02*
X9740000Y-5725000I40000J0D01*
G01*
X9940000Y-5725000D02*
G75*
G02*
X9860000Y-5725000I-40000J0D01*
G01*
X9860000Y-5725000D02*
G75*
G02*
X9940000Y-5725000I40000J0D01*
G01*
X10265000Y-5725000D02*
G75*
G02*
X10185000Y-5725000I-40000J0D01*
G01*
X10185000Y-5725000D02*
G75*
G02*
X10265000Y-5725000I40000J0D01*
G01*
X10465000Y-5725000D02*
G75*
G02*
X10385000Y-5725000I-40000J0D01*
G01*
X10385000Y-5725000D02*
G75*
G02*
X10465000Y-5725000I40000J0D01*
G01*
D11*
X7808277Y-8013984D02*
X7808277Y-7813984D01*
X7808277Y-7813984D02*
X7855896Y-7813984D01*
X7855896Y-7813984D02*
X7884467Y-7823508D01*
X7884467Y-7823508D02*
X7903515Y-7842555D01*
X7903515Y-7842555D02*
X7913039Y-7861603D01*
X7913039Y-7861603D02*
X7922562Y-7899698D01*
X7922562Y-7899698D02*
X7922562Y-7928269D01*
X7922562Y-7928269D02*
X7913039Y-7966365D01*
X7913039Y-7966365D02*
X7903515Y-7985412D01*
X7903515Y-7985412D02*
X7884467Y-8004460D01*
X7884467Y-8004460D02*
X7855896Y-8013984D01*
X7855896Y-8013984D02*
X7808277Y-8013984D01*
X8008277Y-8013984D02*
X8008277Y-7880650D01*
X8008277Y-7918746D02*
X8017801Y-7899698D01*
X8017801Y-7899698D02*
X8027324Y-7890174D01*
X8027324Y-7890174D02*
X8046372Y-7880650D01*
X8046372Y-7880650D02*
X8065420Y-7880650D01*
X8132086Y-8013984D02*
X8132086Y-7880650D01*
X8132086Y-7813984D02*
X8122562Y-7823508D01*
X8122562Y-7823508D02*
X8132086Y-7833031D01*
X8132086Y-7833031D02*
X8141610Y-7823508D01*
X8141610Y-7823508D02*
X8132086Y-7813984D01*
X8132086Y-7813984D02*
X8132086Y-7833031D01*
X8255896Y-8013984D02*
X8236848Y-8004460D01*
X8236848Y-8004460D02*
X8227324Y-7985412D01*
X8227324Y-7985412D02*
X8227324Y-7813984D01*
X8360658Y-8013984D02*
X8341610Y-8004460D01*
X8341610Y-8004460D02*
X8332086Y-7985412D01*
X8332086Y-7985412D02*
X8332086Y-7813984D01*
X8589229Y-8013984D02*
X8589229Y-7813984D01*
X8589229Y-7813984D02*
X8655896Y-7956841D01*
X8655896Y-7956841D02*
X8722563Y-7813984D01*
X8722563Y-7813984D02*
X8722563Y-8013984D01*
X8903515Y-8013984D02*
X8903515Y-7909222D01*
X8903515Y-7909222D02*
X8893991Y-7890174D01*
X8893991Y-7890174D02*
X8874944Y-7880650D01*
X8874944Y-7880650D02*
X8836848Y-7880650D01*
X8836848Y-7880650D02*
X8817801Y-7890174D01*
X8903515Y-8004460D02*
X8884467Y-8013984D01*
X8884467Y-8013984D02*
X8836848Y-8013984D01*
X8836848Y-8013984D02*
X8817801Y-8004460D01*
X8817801Y-8004460D02*
X8808277Y-7985412D01*
X8808277Y-7985412D02*
X8808277Y-7966365D01*
X8808277Y-7966365D02*
X8817801Y-7947317D01*
X8817801Y-7947317D02*
X8836848Y-7937793D01*
X8836848Y-7937793D02*
X8884467Y-7937793D01*
X8884467Y-7937793D02*
X8903515Y-7928269D01*
X8998753Y-7880650D02*
X8998753Y-8080650D01*
X8998753Y-7890174D02*
X9017801Y-7880650D01*
X9017801Y-7880650D02*
X9055896Y-7880650D01*
X9055896Y-7880650D02*
X9074944Y-7890174D01*
X9074944Y-7890174D02*
X9084467Y-7899698D01*
X9084467Y-7899698D02*
X9093991Y-7918746D01*
X9093991Y-7918746D02*
X9093991Y-7975888D01*
X9093991Y-7975888D02*
X9084467Y-7994936D01*
X9084467Y-7994936D02*
X9074944Y-8004460D01*
X9074944Y-8004460D02*
X9055896Y-8013984D01*
X9055896Y-8013984D02*
X9017801Y-8013984D01*
X9017801Y-8013984D02*
X8998753Y-8004460D01*
X9179705Y-7994936D02*
X9189229Y-8004460D01*
X9189229Y-8004460D02*
X9179705Y-8013984D01*
X9179705Y-8013984D02*
X9170182Y-8004460D01*
X9170182Y-8004460D02*
X9179705Y-7994936D01*
X9179705Y-7994936D02*
X9179705Y-8013984D01*
X9179705Y-7890174D02*
X9189229Y-7899698D01*
X9189229Y-7899698D02*
X9179705Y-7909222D01*
X9179705Y-7909222D02*
X9170182Y-7899698D01*
X9170182Y-7899698D02*
X9179705Y-7890174D01*
X9179705Y-7890174D02*
X9179705Y-7909222D01*
D12*
X7507500Y-8322500D02*
X7547500Y-8362500D01*
X7547500Y-8322500D02*
X7507500Y-8362500D01*
D11*
X7846372Y-8233984D02*
X7865420Y-8233984D01*
X7865420Y-8233984D02*
X7884467Y-8243508D01*
X7884467Y-8243508D02*
X7893991Y-8253031D01*
X7893991Y-8253031D02*
X7903515Y-8272079D01*
X7903515Y-8272079D02*
X7913039Y-8310174D01*
X7913039Y-8310174D02*
X7913039Y-8357793D01*
X7913039Y-8357793D02*
X7903515Y-8395889D01*
X7903515Y-8395889D02*
X7893991Y-8414936D01*
X7893991Y-8414936D02*
X7884467Y-8424460D01*
X7884467Y-8424460D02*
X7865420Y-8433984D01*
X7865420Y-8433984D02*
X7846372Y-8433984D01*
X7846372Y-8433984D02*
X7827324Y-8424460D01*
X7827324Y-8424460D02*
X7817801Y-8414936D01*
X7817801Y-8414936D02*
X7808277Y-8395889D01*
X7808277Y-8395889D02*
X7798753Y-8357793D01*
X7798753Y-8357793D02*
X7798753Y-8310174D01*
X7798753Y-8310174D02*
X7808277Y-8272079D01*
X7808277Y-8272079D02*
X7817801Y-8253031D01*
X7817801Y-8253031D02*
X7827324Y-8243508D01*
X7827324Y-8243508D02*
X7846372Y-8233984D01*
X7998753Y-8414936D02*
X8008277Y-8424460D01*
X8008277Y-8424460D02*
X7998753Y-8433984D01*
X7998753Y-8433984D02*
X7989229Y-8424460D01*
X7989229Y-8424460D02*
X7998753Y-8414936D01*
X7998753Y-8414936D02*
X7998753Y-8433984D01*
X8179705Y-8300650D02*
X8179705Y-8433984D01*
X8132086Y-8224460D02*
X8084467Y-8367317D01*
X8084467Y-8367317D02*
X8208277Y-8367317D01*
X8322562Y-8233984D02*
X8341610Y-8233984D01*
X8341610Y-8233984D02*
X8360658Y-8243508D01*
X8360658Y-8243508D02*
X8370182Y-8253031D01*
X8370182Y-8253031D02*
X8379705Y-8272079D01*
X8379705Y-8272079D02*
X8389229Y-8310174D01*
X8389229Y-8310174D02*
X8389229Y-8357793D01*
X8389229Y-8357793D02*
X8379705Y-8395889D01*
X8379705Y-8395889D02*
X8370182Y-8414936D01*
X8370182Y-8414936D02*
X8360658Y-8424460D01*
X8360658Y-8424460D02*
X8341610Y-8433984D01*
X8341610Y-8433984D02*
X8322562Y-8433984D01*
X8322562Y-8433984D02*
X8303515Y-8424460D01*
X8303515Y-8424460D02*
X8293991Y-8414936D01*
X8293991Y-8414936D02*
X8284467Y-8395889D01*
X8284467Y-8395889D02*
X8274943Y-8357793D01*
X8274943Y-8357793D02*
X8274943Y-8310174D01*
X8274943Y-8310174D02*
X8284467Y-8272079D01*
X8284467Y-8272079D02*
X8293991Y-8253031D01*
X8293991Y-8253031D02*
X8303515Y-8243508D01*
X8303515Y-8243508D02*
X8322562Y-8233984D01*
X8513039Y-8233984D02*
X8532086Y-8233984D01*
X8532086Y-8233984D02*
X8551134Y-8243508D01*
X8551134Y-8243508D02*
X8560658Y-8253031D01*
X8560658Y-8253031D02*
X8570182Y-8272079D01*
X8570182Y-8272079D02*
X8579705Y-8310174D01*
X8579705Y-8310174D02*
X8579705Y-8357793D01*
X8579705Y-8357793D02*
X8570182Y-8395889D01*
X8570182Y-8395889D02*
X8560658Y-8414936D01*
X8560658Y-8414936D02*
X8551134Y-8424460D01*
X8551134Y-8424460D02*
X8532086Y-8433984D01*
X8532086Y-8433984D02*
X8513039Y-8433984D01*
X8513039Y-8433984D02*
X8493991Y-8424460D01*
X8493991Y-8424460D02*
X8484467Y-8414936D01*
X8484467Y-8414936D02*
X8474944Y-8395889D01*
X8474944Y-8395889D02*
X8465420Y-8357793D01*
X8465420Y-8357793D02*
X8465420Y-8310174D01*
X8465420Y-8310174D02*
X8474944Y-8272079D01*
X8474944Y-8272079D02*
X8484467Y-8253031D01*
X8484467Y-8253031D02*
X8493991Y-8243508D01*
X8493991Y-8243508D02*
X8513039Y-8233984D01*
X8665420Y-8433984D02*
X8665420Y-8300650D01*
X8665420Y-8319698D02*
X8674944Y-8310174D01*
X8674944Y-8310174D02*
X8693991Y-8300650D01*
X8693991Y-8300650D02*
X8722563Y-8300650D01*
X8722563Y-8300650D02*
X8741610Y-8310174D01*
X8741610Y-8310174D02*
X8751134Y-8329222D01*
X8751134Y-8329222D02*
X8751134Y-8433984D01*
X8751134Y-8329222D02*
X8760658Y-8310174D01*
X8760658Y-8310174D02*
X8779705Y-8300650D01*
X8779705Y-8300650D02*
X8808277Y-8300650D01*
X8808277Y-8300650D02*
X8827325Y-8310174D01*
X8827325Y-8310174D02*
X8836848Y-8329222D01*
X8836848Y-8329222D02*
X8836848Y-8433984D01*
X8932086Y-8433984D02*
X8932086Y-8300650D01*
X8932086Y-8319698D02*
X8941610Y-8310174D01*
X8941610Y-8310174D02*
X8960658Y-8300650D01*
X8960658Y-8300650D02*
X8989229Y-8300650D01*
X8989229Y-8300650D02*
X9008277Y-8310174D01*
X9008277Y-8310174D02*
X9017801Y-8329222D01*
X9017801Y-8329222D02*
X9017801Y-8433984D01*
X9017801Y-8329222D02*
X9027325Y-8310174D01*
X9027325Y-8310174D02*
X9046372Y-8300650D01*
X9046372Y-8300650D02*
X9074944Y-8300650D01*
X9074944Y-8300650D02*
X9093991Y-8310174D01*
X9093991Y-8310174D02*
X9103515Y-8329222D01*
X9103515Y-8329222D02*
X9103515Y-8433984D01*
X9493991Y-8224460D02*
X9322563Y-8481603D01*
X9751134Y-8233984D02*
X9770182Y-8233984D01*
X9770182Y-8233984D02*
X9789229Y-8243508D01*
X9789229Y-8243508D02*
X9798753Y-8253031D01*
X9798753Y-8253031D02*
X9808277Y-8272079D01*
X9808277Y-8272079D02*
X9817801Y-8310174D01*
X9817801Y-8310174D02*
X9817801Y-8357793D01*
X9817801Y-8357793D02*
X9808277Y-8395889D01*
X9808277Y-8395889D02*
X9798753Y-8414936D01*
X9798753Y-8414936D02*
X9789229Y-8424460D01*
X9789229Y-8424460D02*
X9770182Y-8433984D01*
X9770182Y-8433984D02*
X9751134Y-8433984D01*
X9751134Y-8433984D02*
X9732087Y-8424460D01*
X9732087Y-8424460D02*
X9722563Y-8414936D01*
X9722563Y-8414936D02*
X9713039Y-8395889D01*
X9713039Y-8395889D02*
X9703515Y-8357793D01*
X9703515Y-8357793D02*
X9703515Y-8310174D01*
X9703515Y-8310174D02*
X9713039Y-8272079D01*
X9713039Y-8272079D02*
X9722563Y-8253031D01*
X9722563Y-8253031D02*
X9732087Y-8243508D01*
X9732087Y-8243508D02*
X9751134Y-8233984D01*
X9903515Y-8414936D02*
X9913039Y-8424460D01*
X9913039Y-8424460D02*
X9903515Y-8433984D01*
X9903515Y-8433984D02*
X9893991Y-8424460D01*
X9893991Y-8424460D02*
X9903515Y-8414936D01*
X9903515Y-8414936D02*
X9903515Y-8433984D01*
X10036848Y-8233984D02*
X10055896Y-8233984D01*
X10055896Y-8233984D02*
X10074944Y-8243508D01*
X10074944Y-8243508D02*
X10084468Y-8253031D01*
X10084468Y-8253031D02*
X10093991Y-8272079D01*
X10093991Y-8272079D02*
X10103515Y-8310174D01*
X10103515Y-8310174D02*
X10103515Y-8357793D01*
X10103515Y-8357793D02*
X10093991Y-8395889D01*
X10093991Y-8395889D02*
X10084468Y-8414936D01*
X10084468Y-8414936D02*
X10074944Y-8424460D01*
X10074944Y-8424460D02*
X10055896Y-8433984D01*
X10055896Y-8433984D02*
X10036848Y-8433984D01*
X10036848Y-8433984D02*
X10017801Y-8424460D01*
X10017801Y-8424460D02*
X10008277Y-8414936D01*
X10008277Y-8414936D02*
X9998753Y-8395889D01*
X9998753Y-8395889D02*
X9989229Y-8357793D01*
X9989229Y-8357793D02*
X9989229Y-8310174D01*
X9989229Y-8310174D02*
X9998753Y-8272079D01*
X9998753Y-8272079D02*
X10008277Y-8253031D01*
X10008277Y-8253031D02*
X10017801Y-8243508D01*
X10017801Y-8243508D02*
X10036848Y-8233984D01*
X10293991Y-8433984D02*
X10179706Y-8433984D01*
X10236848Y-8433984D02*
X10236848Y-8233984D01*
X10236848Y-8233984D02*
X10217801Y-8262555D01*
X10217801Y-8262555D02*
X10198753Y-8281603D01*
X10198753Y-8281603D02*
X10179706Y-8291127D01*
X10474944Y-8233984D02*
X10379706Y-8233984D01*
X10379706Y-8233984D02*
X10370182Y-8329222D01*
X10370182Y-8329222D02*
X10379706Y-8319698D01*
X10379706Y-8319698D02*
X10398753Y-8310174D01*
X10398753Y-8310174D02*
X10446372Y-8310174D01*
X10446372Y-8310174D02*
X10465420Y-8319698D01*
X10465420Y-8319698D02*
X10474944Y-8329222D01*
X10474944Y-8329222D02*
X10484468Y-8348269D01*
X10484468Y-8348269D02*
X10484468Y-8395889D01*
X10484468Y-8395889D02*
X10474944Y-8414936D01*
X10474944Y-8414936D02*
X10465420Y-8424460D01*
X10465420Y-8424460D02*
X10446372Y-8433984D01*
X10446372Y-8433984D02*
X10398753Y-8433984D01*
X10398753Y-8433984D02*
X10379706Y-8424460D01*
X10379706Y-8424460D02*
X10370182Y-8414936D01*
X10551134Y-8233984D02*
X10684468Y-8233984D01*
X10684468Y-8233984D02*
X10598753Y-8433984D01*
X10751134Y-8233984D02*
X10751134Y-8272079D01*
X10827325Y-8233984D02*
X10827325Y-8272079D01*
X11122563Y-8510174D02*
X11113039Y-8500650D01*
X11113039Y-8500650D02*
X11093991Y-8472079D01*
X11093991Y-8472079D02*
X11084468Y-8453031D01*
X11084468Y-8453031D02*
X11074944Y-8424460D01*
X11074944Y-8424460D02*
X11065420Y-8376841D01*
X11065420Y-8376841D02*
X11065420Y-8338746D01*
X11065420Y-8338746D02*
X11074944Y-8291127D01*
X11074944Y-8291127D02*
X11084468Y-8262555D01*
X11084468Y-8262555D02*
X11093991Y-8243508D01*
X11093991Y-8243508D02*
X11113039Y-8214936D01*
X11113039Y-8214936D02*
X11122563Y-8205412D01*
X11284468Y-8300650D02*
X11284468Y-8433984D01*
X11236848Y-8224460D02*
X11189229Y-8367317D01*
X11189229Y-8367317D02*
X11313039Y-8367317D01*
X11541610Y-8433984D02*
X11541610Y-8233984D01*
X11627325Y-8433984D02*
X11627325Y-8329222D01*
X11627325Y-8329222D02*
X11617801Y-8310174D01*
X11617801Y-8310174D02*
X11598753Y-8300650D01*
X11598753Y-8300650D02*
X11570182Y-8300650D01*
X11570182Y-8300650D02*
X11551134Y-8310174D01*
X11551134Y-8310174D02*
X11541610Y-8319698D01*
X11751134Y-8433984D02*
X11732087Y-8424460D01*
X11732087Y-8424460D02*
X11722563Y-8414936D01*
X11722563Y-8414936D02*
X11713039Y-8395889D01*
X11713039Y-8395889D02*
X11713039Y-8338746D01*
X11713039Y-8338746D02*
X11722563Y-8319698D01*
X11722563Y-8319698D02*
X11732087Y-8310174D01*
X11732087Y-8310174D02*
X11751134Y-8300650D01*
X11751134Y-8300650D02*
X11779706Y-8300650D01*
X11779706Y-8300650D02*
X11798753Y-8310174D01*
X11798753Y-8310174D02*
X11808277Y-8319698D01*
X11808277Y-8319698D02*
X11817801Y-8338746D01*
X11817801Y-8338746D02*
X11817801Y-8395889D01*
X11817801Y-8395889D02*
X11808277Y-8414936D01*
X11808277Y-8414936D02*
X11798753Y-8424460D01*
X11798753Y-8424460D02*
X11779706Y-8433984D01*
X11779706Y-8433984D02*
X11751134Y-8433984D01*
X11932087Y-8433984D02*
X11913039Y-8424460D01*
X11913039Y-8424460D02*
X11903515Y-8405412D01*
X11903515Y-8405412D02*
X11903515Y-8233984D01*
X12084468Y-8424460D02*
X12065420Y-8433984D01*
X12065420Y-8433984D02*
X12027325Y-8433984D01*
X12027325Y-8433984D02*
X12008277Y-8424460D01*
X12008277Y-8424460D02*
X11998753Y-8405412D01*
X11998753Y-8405412D02*
X11998753Y-8329222D01*
X11998753Y-8329222D02*
X12008277Y-8310174D01*
X12008277Y-8310174D02*
X12027325Y-8300650D01*
X12027325Y-8300650D02*
X12065420Y-8300650D01*
X12065420Y-8300650D02*
X12084468Y-8310174D01*
X12084468Y-8310174D02*
X12093991Y-8329222D01*
X12093991Y-8329222D02*
X12093991Y-8348269D01*
X12093991Y-8348269D02*
X11998753Y-8367317D01*
X12170182Y-8424460D02*
X12189230Y-8433984D01*
X12189230Y-8433984D02*
X12227325Y-8433984D01*
X12227325Y-8433984D02*
X12246372Y-8424460D01*
X12246372Y-8424460D02*
X12255896Y-8405412D01*
X12255896Y-8405412D02*
X12255896Y-8395889D01*
X12255896Y-8395889D02*
X12246372Y-8376841D01*
X12246372Y-8376841D02*
X12227325Y-8367317D01*
X12227325Y-8367317D02*
X12198753Y-8367317D01*
X12198753Y-8367317D02*
X12179706Y-8357793D01*
X12179706Y-8357793D02*
X12170182Y-8338746D01*
X12170182Y-8338746D02*
X12170182Y-8329222D01*
X12170182Y-8329222D02*
X12179706Y-8310174D01*
X12179706Y-8310174D02*
X12198753Y-8300650D01*
X12198753Y-8300650D02*
X12227325Y-8300650D01*
X12227325Y-8300650D02*
X12246372Y-8310174D01*
X12322563Y-8510174D02*
X12332087Y-8500650D01*
X12332087Y-8500650D02*
X12351134Y-8472079D01*
X12351134Y-8472079D02*
X12360658Y-8453031D01*
X12360658Y-8453031D02*
X12370182Y-8424460D01*
X12370182Y-8424460D02*
X12379706Y-8376841D01*
X12379706Y-8376841D02*
X12379706Y-8338746D01*
X12379706Y-8338746D02*
X12370182Y-8291127D01*
X12370182Y-8291127D02*
X12360658Y-8262555D01*
X12360658Y-8262555D02*
X12351134Y-8243508D01*
X12351134Y-8243508D02*
X12332087Y-8214936D01*
X12332087Y-8214936D02*
X12322563Y-8205412D01*
D12*
X7547500Y-8606500D02*
G75*
G02*
X7467500Y-8606500I-40000J0D01*
G01*
X7467500Y-8606500D02*
G75*
G02*
X7547500Y-8606500I40000J0D01*
G01*
D11*
X7846372Y-8497984D02*
X7865420Y-8497984D01*
X7865420Y-8497984D02*
X7884467Y-8507508D01*
X7884467Y-8507508D02*
X7893991Y-8517031D01*
X7893991Y-8517031D02*
X7903515Y-8536079D01*
X7903515Y-8536079D02*
X7913039Y-8574174D01*
X7913039Y-8574174D02*
X7913039Y-8621793D01*
X7913039Y-8621793D02*
X7903515Y-8659889D01*
X7903515Y-8659889D02*
X7893991Y-8678936D01*
X7893991Y-8678936D02*
X7884467Y-8688460D01*
X7884467Y-8688460D02*
X7865420Y-8697984D01*
X7865420Y-8697984D02*
X7846372Y-8697984D01*
X7846372Y-8697984D02*
X7827324Y-8688460D01*
X7827324Y-8688460D02*
X7817801Y-8678936D01*
X7817801Y-8678936D02*
X7808277Y-8659889D01*
X7808277Y-8659889D02*
X7798753Y-8621793D01*
X7798753Y-8621793D02*
X7798753Y-8574174D01*
X7798753Y-8574174D02*
X7808277Y-8536079D01*
X7808277Y-8536079D02*
X7817801Y-8517031D01*
X7817801Y-8517031D02*
X7827324Y-8507508D01*
X7827324Y-8507508D02*
X7846372Y-8497984D01*
X7998753Y-8678936D02*
X8008277Y-8688460D01*
X8008277Y-8688460D02*
X7998753Y-8697984D01*
X7998753Y-8697984D02*
X7989229Y-8688460D01*
X7989229Y-8688460D02*
X7998753Y-8678936D01*
X7998753Y-8678936D02*
X7998753Y-8697984D01*
X8122562Y-8583698D02*
X8103515Y-8574174D01*
X8103515Y-8574174D02*
X8093991Y-8564650D01*
X8093991Y-8564650D02*
X8084467Y-8545603D01*
X8084467Y-8545603D02*
X8084467Y-8536079D01*
X8084467Y-8536079D02*
X8093991Y-8517031D01*
X8093991Y-8517031D02*
X8103515Y-8507508D01*
X8103515Y-8507508D02*
X8122562Y-8497984D01*
X8122562Y-8497984D02*
X8160658Y-8497984D01*
X8160658Y-8497984D02*
X8179705Y-8507508D01*
X8179705Y-8507508D02*
X8189229Y-8517031D01*
X8189229Y-8517031D02*
X8198753Y-8536079D01*
X8198753Y-8536079D02*
X8198753Y-8545603D01*
X8198753Y-8545603D02*
X8189229Y-8564650D01*
X8189229Y-8564650D02*
X8179705Y-8574174D01*
X8179705Y-8574174D02*
X8160658Y-8583698D01*
X8160658Y-8583698D02*
X8122562Y-8583698D01*
X8122562Y-8583698D02*
X8103515Y-8593222D01*
X8103515Y-8593222D02*
X8093991Y-8602746D01*
X8093991Y-8602746D02*
X8084467Y-8621793D01*
X8084467Y-8621793D02*
X8084467Y-8659889D01*
X8084467Y-8659889D02*
X8093991Y-8678936D01*
X8093991Y-8678936D02*
X8103515Y-8688460D01*
X8103515Y-8688460D02*
X8122562Y-8697984D01*
X8122562Y-8697984D02*
X8160658Y-8697984D01*
X8160658Y-8697984D02*
X8179705Y-8688460D01*
X8179705Y-8688460D02*
X8189229Y-8678936D01*
X8189229Y-8678936D02*
X8198753Y-8659889D01*
X8198753Y-8659889D02*
X8198753Y-8621793D01*
X8198753Y-8621793D02*
X8189229Y-8602746D01*
X8189229Y-8602746D02*
X8179705Y-8593222D01*
X8179705Y-8593222D02*
X8160658Y-8583698D01*
X8322562Y-8497984D02*
X8341610Y-8497984D01*
X8341610Y-8497984D02*
X8360658Y-8507508D01*
X8360658Y-8507508D02*
X8370182Y-8517031D01*
X8370182Y-8517031D02*
X8379705Y-8536079D01*
X8379705Y-8536079D02*
X8389229Y-8574174D01*
X8389229Y-8574174D02*
X8389229Y-8621793D01*
X8389229Y-8621793D02*
X8379705Y-8659889D01*
X8379705Y-8659889D02*
X8370182Y-8678936D01*
X8370182Y-8678936D02*
X8360658Y-8688460D01*
X8360658Y-8688460D02*
X8341610Y-8697984D01*
X8341610Y-8697984D02*
X8322562Y-8697984D01*
X8322562Y-8697984D02*
X8303515Y-8688460D01*
X8303515Y-8688460D02*
X8293991Y-8678936D01*
X8293991Y-8678936D02*
X8284467Y-8659889D01*
X8284467Y-8659889D02*
X8274943Y-8621793D01*
X8274943Y-8621793D02*
X8274943Y-8574174D01*
X8274943Y-8574174D02*
X8284467Y-8536079D01*
X8284467Y-8536079D02*
X8293991Y-8517031D01*
X8293991Y-8517031D02*
X8303515Y-8507508D01*
X8303515Y-8507508D02*
X8322562Y-8497984D01*
X8513039Y-8497984D02*
X8532086Y-8497984D01*
X8532086Y-8497984D02*
X8551134Y-8507508D01*
X8551134Y-8507508D02*
X8560658Y-8517031D01*
X8560658Y-8517031D02*
X8570182Y-8536079D01*
X8570182Y-8536079D02*
X8579705Y-8574174D01*
X8579705Y-8574174D02*
X8579705Y-8621793D01*
X8579705Y-8621793D02*
X8570182Y-8659889D01*
X8570182Y-8659889D02*
X8560658Y-8678936D01*
X8560658Y-8678936D02*
X8551134Y-8688460D01*
X8551134Y-8688460D02*
X8532086Y-8697984D01*
X8532086Y-8697984D02*
X8513039Y-8697984D01*
X8513039Y-8697984D02*
X8493991Y-8688460D01*
X8493991Y-8688460D02*
X8484467Y-8678936D01*
X8484467Y-8678936D02*
X8474944Y-8659889D01*
X8474944Y-8659889D02*
X8465420Y-8621793D01*
X8465420Y-8621793D02*
X8465420Y-8574174D01*
X8465420Y-8574174D02*
X8474944Y-8536079D01*
X8474944Y-8536079D02*
X8484467Y-8517031D01*
X8484467Y-8517031D02*
X8493991Y-8507508D01*
X8493991Y-8507508D02*
X8513039Y-8497984D01*
X8665420Y-8697984D02*
X8665420Y-8564650D01*
X8665420Y-8583698D02*
X8674944Y-8574174D01*
X8674944Y-8574174D02*
X8693991Y-8564650D01*
X8693991Y-8564650D02*
X8722563Y-8564650D01*
X8722563Y-8564650D02*
X8741610Y-8574174D01*
X8741610Y-8574174D02*
X8751134Y-8593222D01*
X8751134Y-8593222D02*
X8751134Y-8697984D01*
X8751134Y-8593222D02*
X8760658Y-8574174D01*
X8760658Y-8574174D02*
X8779705Y-8564650D01*
X8779705Y-8564650D02*
X8808277Y-8564650D01*
X8808277Y-8564650D02*
X8827325Y-8574174D01*
X8827325Y-8574174D02*
X8836848Y-8593222D01*
X8836848Y-8593222D02*
X8836848Y-8697984D01*
X8932086Y-8697984D02*
X8932086Y-8564650D01*
X8932086Y-8583698D02*
X8941610Y-8574174D01*
X8941610Y-8574174D02*
X8960658Y-8564650D01*
X8960658Y-8564650D02*
X8989229Y-8564650D01*
X8989229Y-8564650D02*
X9008277Y-8574174D01*
X9008277Y-8574174D02*
X9017801Y-8593222D01*
X9017801Y-8593222D02*
X9017801Y-8697984D01*
X9017801Y-8593222D02*
X9027325Y-8574174D01*
X9027325Y-8574174D02*
X9046372Y-8564650D01*
X9046372Y-8564650D02*
X9074944Y-8564650D01*
X9074944Y-8564650D02*
X9093991Y-8574174D01*
X9093991Y-8574174D02*
X9103515Y-8593222D01*
X9103515Y-8593222D02*
X9103515Y-8697984D01*
X9493991Y-8488460D02*
X9322563Y-8745603D01*
X9751134Y-8497984D02*
X9770182Y-8497984D01*
X9770182Y-8497984D02*
X9789229Y-8507508D01*
X9789229Y-8507508D02*
X9798753Y-8517031D01*
X9798753Y-8517031D02*
X9808277Y-8536079D01*
X9808277Y-8536079D02*
X9817801Y-8574174D01*
X9817801Y-8574174D02*
X9817801Y-8621793D01*
X9817801Y-8621793D02*
X9808277Y-8659889D01*
X9808277Y-8659889D02*
X9798753Y-8678936D01*
X9798753Y-8678936D02*
X9789229Y-8688460D01*
X9789229Y-8688460D02*
X9770182Y-8697984D01*
X9770182Y-8697984D02*
X9751134Y-8697984D01*
X9751134Y-8697984D02*
X9732087Y-8688460D01*
X9732087Y-8688460D02*
X9722563Y-8678936D01*
X9722563Y-8678936D02*
X9713039Y-8659889D01*
X9713039Y-8659889D02*
X9703515Y-8621793D01*
X9703515Y-8621793D02*
X9703515Y-8574174D01*
X9703515Y-8574174D02*
X9713039Y-8536079D01*
X9713039Y-8536079D02*
X9722563Y-8517031D01*
X9722563Y-8517031D02*
X9732087Y-8507508D01*
X9732087Y-8507508D02*
X9751134Y-8497984D01*
X9903515Y-8678936D02*
X9913039Y-8688460D01*
X9913039Y-8688460D02*
X9903515Y-8697984D01*
X9903515Y-8697984D02*
X9893991Y-8688460D01*
X9893991Y-8688460D02*
X9903515Y-8678936D01*
X9903515Y-8678936D02*
X9903515Y-8697984D01*
X10036848Y-8497984D02*
X10055896Y-8497984D01*
X10055896Y-8497984D02*
X10074944Y-8507508D01*
X10074944Y-8507508D02*
X10084468Y-8517031D01*
X10084468Y-8517031D02*
X10093991Y-8536079D01*
X10093991Y-8536079D02*
X10103515Y-8574174D01*
X10103515Y-8574174D02*
X10103515Y-8621793D01*
X10103515Y-8621793D02*
X10093991Y-8659889D01*
X10093991Y-8659889D02*
X10084468Y-8678936D01*
X10084468Y-8678936D02*
X10074944Y-8688460D01*
X10074944Y-8688460D02*
X10055896Y-8697984D01*
X10055896Y-8697984D02*
X10036848Y-8697984D01*
X10036848Y-8697984D02*
X10017801Y-8688460D01*
X10017801Y-8688460D02*
X10008277Y-8678936D01*
X10008277Y-8678936D02*
X9998753Y-8659889D01*
X9998753Y-8659889D02*
X9989229Y-8621793D01*
X9989229Y-8621793D02*
X9989229Y-8574174D01*
X9989229Y-8574174D02*
X9998753Y-8536079D01*
X9998753Y-8536079D02*
X10008277Y-8517031D01*
X10008277Y-8517031D02*
X10017801Y-8507508D01*
X10017801Y-8507508D02*
X10036848Y-8497984D01*
X10170182Y-8497984D02*
X10293991Y-8497984D01*
X10293991Y-8497984D02*
X10227325Y-8574174D01*
X10227325Y-8574174D02*
X10255896Y-8574174D01*
X10255896Y-8574174D02*
X10274944Y-8583698D01*
X10274944Y-8583698D02*
X10284468Y-8593222D01*
X10284468Y-8593222D02*
X10293991Y-8612270D01*
X10293991Y-8612270D02*
X10293991Y-8659889D01*
X10293991Y-8659889D02*
X10284468Y-8678936D01*
X10284468Y-8678936D02*
X10274944Y-8688460D01*
X10274944Y-8688460D02*
X10255896Y-8697984D01*
X10255896Y-8697984D02*
X10198753Y-8697984D01*
X10198753Y-8697984D02*
X10179706Y-8688460D01*
X10179706Y-8688460D02*
X10170182Y-8678936D01*
X10484468Y-8697984D02*
X10370182Y-8697984D01*
X10427325Y-8697984D02*
X10427325Y-8497984D01*
X10427325Y-8497984D02*
X10408277Y-8526555D01*
X10408277Y-8526555D02*
X10389229Y-8545603D01*
X10389229Y-8545603D02*
X10370182Y-8555127D01*
X10665420Y-8497984D02*
X10570182Y-8497984D01*
X10570182Y-8497984D02*
X10560658Y-8593222D01*
X10560658Y-8593222D02*
X10570182Y-8583698D01*
X10570182Y-8583698D02*
X10589229Y-8574174D01*
X10589229Y-8574174D02*
X10636849Y-8574174D01*
X10636849Y-8574174D02*
X10655896Y-8583698D01*
X10655896Y-8583698D02*
X10665420Y-8593222D01*
X10665420Y-8593222D02*
X10674944Y-8612270D01*
X10674944Y-8612270D02*
X10674944Y-8659889D01*
X10674944Y-8659889D02*
X10665420Y-8678936D01*
X10665420Y-8678936D02*
X10655896Y-8688460D01*
X10655896Y-8688460D02*
X10636849Y-8697984D01*
X10636849Y-8697984D02*
X10589229Y-8697984D01*
X10589229Y-8697984D02*
X10570182Y-8688460D01*
X10570182Y-8688460D02*
X10560658Y-8678936D01*
X10751134Y-8497984D02*
X10751134Y-8536079D01*
X10827325Y-8497984D02*
X10827325Y-8536079D01*
X11122563Y-8774174D02*
X11113039Y-8764650D01*
X11113039Y-8764650D02*
X11093991Y-8736079D01*
X11093991Y-8736079D02*
X11084468Y-8717031D01*
X11084468Y-8717031D02*
X11074944Y-8688460D01*
X11074944Y-8688460D02*
X11065420Y-8640841D01*
X11065420Y-8640841D02*
X11065420Y-8602746D01*
X11065420Y-8602746D02*
X11074944Y-8555127D01*
X11074944Y-8555127D02*
X11084468Y-8526555D01*
X11084468Y-8526555D02*
X11093991Y-8507508D01*
X11093991Y-8507508D02*
X11113039Y-8478936D01*
X11113039Y-8478936D02*
X11122563Y-8469412D01*
X11303515Y-8697984D02*
X11189229Y-8697984D01*
X11246372Y-8697984D02*
X11246372Y-8497984D01*
X11246372Y-8497984D02*
X11227325Y-8526555D01*
X11227325Y-8526555D02*
X11208277Y-8545603D01*
X11208277Y-8545603D02*
X11189229Y-8555127D01*
X11493991Y-8697984D02*
X11379706Y-8697984D01*
X11436848Y-8697984D02*
X11436848Y-8497984D01*
X11436848Y-8497984D02*
X11417801Y-8526555D01*
X11417801Y-8526555D02*
X11398753Y-8545603D01*
X11398753Y-8545603D02*
X11379706Y-8555127D01*
X11732087Y-8697984D02*
X11732087Y-8497984D01*
X11817801Y-8697984D02*
X11817801Y-8593222D01*
X11817801Y-8593222D02*
X11808277Y-8574174D01*
X11808277Y-8574174D02*
X11789230Y-8564650D01*
X11789230Y-8564650D02*
X11760658Y-8564650D01*
X11760658Y-8564650D02*
X11741610Y-8574174D01*
X11741610Y-8574174D02*
X11732087Y-8583698D01*
X11941610Y-8697984D02*
X11922563Y-8688460D01*
X11922563Y-8688460D02*
X11913039Y-8678936D01*
X11913039Y-8678936D02*
X11903515Y-8659889D01*
X11903515Y-8659889D02*
X11903515Y-8602746D01*
X11903515Y-8602746D02*
X11913039Y-8583698D01*
X11913039Y-8583698D02*
X11922563Y-8574174D01*
X11922563Y-8574174D02*
X11941610Y-8564650D01*
X11941610Y-8564650D02*
X11970182Y-8564650D01*
X11970182Y-8564650D02*
X11989230Y-8574174D01*
X11989230Y-8574174D02*
X11998753Y-8583698D01*
X11998753Y-8583698D02*
X12008277Y-8602746D01*
X12008277Y-8602746D02*
X12008277Y-8659889D01*
X12008277Y-8659889D02*
X11998753Y-8678936D01*
X11998753Y-8678936D02*
X11989230Y-8688460D01*
X11989230Y-8688460D02*
X11970182Y-8697984D01*
X11970182Y-8697984D02*
X11941610Y-8697984D01*
X12122563Y-8697984D02*
X12103515Y-8688460D01*
X12103515Y-8688460D02*
X12093991Y-8669412D01*
X12093991Y-8669412D02*
X12093991Y-8497984D01*
X12274944Y-8688460D02*
X12255896Y-8697984D01*
X12255896Y-8697984D02*
X12217801Y-8697984D01*
X12217801Y-8697984D02*
X12198753Y-8688460D01*
X12198753Y-8688460D02*
X12189230Y-8669412D01*
X12189230Y-8669412D02*
X12189230Y-8593222D01*
X12189230Y-8593222D02*
X12198753Y-8574174D01*
X12198753Y-8574174D02*
X12217801Y-8564650D01*
X12217801Y-8564650D02*
X12255896Y-8564650D01*
X12255896Y-8564650D02*
X12274944Y-8574174D01*
X12274944Y-8574174D02*
X12284468Y-8593222D01*
X12284468Y-8593222D02*
X12284468Y-8612270D01*
X12284468Y-8612270D02*
X12189230Y-8631317D01*
X12360658Y-8688460D02*
X12379706Y-8697984D01*
X12379706Y-8697984D02*
X12417801Y-8697984D01*
X12417801Y-8697984D02*
X12436849Y-8688460D01*
X12436849Y-8688460D02*
X12446372Y-8669412D01*
X12446372Y-8669412D02*
X12446372Y-8659889D01*
X12446372Y-8659889D02*
X12436849Y-8640841D01*
X12436849Y-8640841D02*
X12417801Y-8631317D01*
X12417801Y-8631317D02*
X12389230Y-8631317D01*
X12389230Y-8631317D02*
X12370182Y-8621793D01*
X12370182Y-8621793D02*
X12360658Y-8602746D01*
X12360658Y-8602746D02*
X12360658Y-8593222D01*
X12360658Y-8593222D02*
X12370182Y-8574174D01*
X12370182Y-8574174D02*
X12389230Y-8564650D01*
X12389230Y-8564650D02*
X12417801Y-8564650D01*
X12417801Y-8564650D02*
X12436849Y-8574174D01*
X12513039Y-8774174D02*
X12522563Y-8764650D01*
X12522563Y-8764650D02*
X12541611Y-8736079D01*
X12541611Y-8736079D02*
X12551134Y-8717031D01*
X12551134Y-8717031D02*
X12560658Y-8688460D01*
X12560658Y-8688460D02*
X12570182Y-8640841D01*
X12570182Y-8640841D02*
X12570182Y-8602746D01*
X12570182Y-8602746D02*
X12560658Y-8555127D01*
X12560658Y-8555127D02*
X12551134Y-8526555D01*
X12551134Y-8526555D02*
X12541611Y-8507508D01*
X12541611Y-8507508D02*
X12522563Y-8478936D01*
X12522563Y-8478936D02*
X12513039Y-8469412D01*
M02*
